<svg id="Layer_1" data-name="Layer 1" xmlns="http://www.w3.org/2000/svg" viewBox="0 0 597.25 570.11"><defs><style>.cls-1{fill:#fff;}.cls-2{fill:#0079d3;}.cls-3{fill:none;stroke:#000;stroke-miterlimit:10;stroke-width:9px;}</style></defs><g id="Right_Arm" data-name="Right Arm"><circle class="cls-1" cx="171.52" cy="28.5" r="24"/><path class="cls-1" d="M1229,326.5a29.5,29.5,0,0,1,0,59h-.5v-59Z" transform="translate(-755.98 -171)"/><path class="cls-1" d="M879.5,326.51v59a29.49,29.49,0,0,1,0-59Z" transform="translate(-755.98 -171)"/><polygon class="cls-1" points="472.52 97.5 472.52 155.5 363.02 155.5 235.02 155.5 124.02 155.5 123.52 155.5 123.52 97.5 472.52 97.5"/><path class="cls-1" d="M880,326.5H991a29.5,29.5,0,0,0,0,59H879.5v-59Z" transform="translate(-755.98 -171)"/><path class="cls-1" d="M991,326.5h128a29.5,29.5,0,0,0,0,59H991a29.5,29.5,0,0,0,0-59Z" transform="translate(-755.98 -171)"/><path class="cls-1" d="M1228.5,326.5v59H1119a29.5,29.5,0,0,0,0-59Z" transform="translate(-755.98 -171)"/><polygon class="cls-1" points="400.18 267.5 367.18 267.5 333.52 267.5 333.52 214.5 363.02 214.5 472.52 214.5 472.52 320.5 400.18 320.5 400.18 320.38 400.18 267.88 400.18 267.5"/><polygon class="cls-1" points="264.52 214.5 264.52 267.5 232.18 267.5 198.52 267.5 198.18 267.88 198.18 320.38 198.18 320.5 123.52 320.5 123.52 214.5 124.02 214.5 235.02 214.5 264.52 214.5"/><polygon class="cls-1" points="333.52 214.5 333.52 267.5 298.52 267.5 264.52 267.5 264.52 214.5 333.52 214.5"/><polygon class="cls-1" points="298.52 268 298.52 320.44 264.52 320.46 264.52 267.5 298.52 267.5 298.52 268"/><polygon class="cls-1" points="232.18 320.38 232.18 320.49 210.96 320.5 198.18 320.5 198.18 320.38 198.18 267.88 198.52 267.5 232.18 267.5 232.18 267.88 232.18 320.38"/><polygon class="cls-1" points="264.52 267.5 264.52 320.46 232.18 320.49 232.18 320.38 232.18 267.88 232.18 267.5 264.52 267.5"/><polygon class="cls-1" points="333.52 267.5 333.52 320.42 298.52 320.44 298.52 268 298.52 267.5 333.52 267.5"/><polygon class="cls-1" points="367.18 320.38 367.18 320.39 333.52 320.42 333.52 267.5 367.18 267.5 367.18 267.88 367.18 320.38"/><path class="cls-1" d="M1156.16,491.38v.12H1142.7a.56.56,0,0,1,0-.12h-19.52V438.5h33v52.88Z" transform="translate(-755.98 -171)"/><path class="cls-1" d="M1326,471.41l-.3,1.53-.35-.07c-22-4.18-37.32-1.12-40.11-.48l-.24.06c-.13-.07-.25-.16-.37-.24-13.82-9.21-23.39-27.62-23.87-49h20.11c1.24,19,11.45,33.77,23.86,33.77s22.66-14.83,23.87-33.85h20.11v.08C1348.2,444,1339.16,462,1326,471.41Z" transform="translate(-755.98 -171)"/><path class="cls-1" d="M1285.21,472.39c2.79-.64,18.11-3.7,40.11.48l.35.07a160.93,160.93,0,0,1-6.11,22.19l-.36-.13c-9.35-27.68-33.13-22.73-34-22.55Z" transform="translate(-755.98 -171)"/><path class="cls-1" d="M1285.22,472.45c.85-.18,24.63-5.13,34,22.55l.36.13a157.78,157.78,0,0,1-20.36,39.11l-.34-.24c3.71-26.92-24-31.61-26.49-32a121.9,121.9,0,0,0,12.23-29.81c.12.08.24.17.37.24l.24-.06Z" transform="translate(-755.98 -171)"/><path class="cls-1" d="M1298.86,534l.34.24A182.28,182.28,0,0,1,1266.54,569c11.43-28-18.84-35.46-18.84-35.46l-.33-.36a132.6,132.6,0,0,0,25-31.14C1274.83,502.39,1302.57,507.08,1298.86,534Z" transform="translate(-755.98 -171)"/><path class="cls-1" d="M1247.7,533.52S1278,541,1266.54,569a232.42,232.42,0,0,1-34.83,23.58c10.16-25.66-14.87-33.86-18.56-34.92a174,174,0,0,0,34.22-24.48Z" transform="translate(-755.98 -171)"/><path class="cls-1" d="M1213.15,557.64c3.69,1.06,28.72,9.26,18.56,34.92a291.51,291.51,0,0,1-42.83,19.38c12-28.22-17.86-35.93-18.56-36.11A233.09,233.09,0,0,0,1213.15,557.64Z" transform="translate(-755.98 -171)"/><path class="cls-1" d="M1170.32,575.83c.7.18,30.58,7.89,18.56,36.11-27.4,9.92-47.83,13.06-47.83,13.06l-1.32-.21c2.24-14.19,3.63-28.58,4.44-42.39A210.7,210.7,0,0,0,1170.32,575.83Z" transform="translate(-755.98 -171)"/><path class="cls-1" d="M824.6,472.21a3.75,3.75,0,0,1-.36.24l-.25-.06c-2.78-.64-18.1-3.7-40.1.48l-.35.07-.3-1.53C770,462,761,444,760.52,423.23v-.08h20.11c1.22,19,11.44,33.85,23.87,33.85s22.62-14.79,23.86-33.77h20.11C848,444.59,838.42,463,824.6,472.21Z" transform="translate(-755.98 -171)"/><path class="cls-1" d="M783.89,472.87c22-4.18,37.32-1.12,40.1-.48v.06c-.85-.18-24.63-5.13-34,22.55l-.35.12a161.17,161.17,0,0,1-6.11-22.18Z" transform="translate(-755.98 -171)"/><path class="cls-1" d="M824.6,472.21A121.9,121.9,0,0,0,836.83,502c-2.45.37-30.19,5.06-26.49,32l-.32.23a157.14,157.14,0,0,1-20.37-39.11L790,495c9.35-27.68,33.13-22.73,34-22.55v-.06l.25.06A3.75,3.75,0,0,0,824.6,472.21Z" transform="translate(-755.98 -171)"/><path class="cls-1" d="M861.84,533.16l-.34.36S831.23,541,842.67,569A181.36,181.36,0,0,1,810,534.23l.32-.23c-3.7-26.92,24-31.61,26.49-32A132.89,132.89,0,0,0,861.84,533.16Z" transform="translate(-755.98 -171)"/><path class="cls-1" d="M896.06,557.64c-3.65,1-28.74,9.24-18.56,34.93A232,232,0,0,1,842.67,569c-11.44-28,18.83-35.46,18.83-35.46l.34-.36A174,174,0,0,0,896.06,557.64Z" transform="translate(-755.98 -171)"/><path class="cls-1" d="M938.89,575.83s-30.74,7.56-18.56,36.12a293,293,0,0,1-42.83-19.38c-10.18-25.69,14.91-33.89,18.56-34.93A233.09,233.09,0,0,0,938.89,575.83Z" transform="translate(-755.98 -171)"/><path class="cls-1" d="M969,624.87l-.86.13s-20.43-3.14-47.82-13c-12.18-28.56,18.56-36.12,18.56-36.12a213.4,213.4,0,0,0,25.94,6.54C965.56,596.21,966.86,610.64,969,624.87Z" transform="translate(-755.98 -171)"/><path class="cls-1" d="M1049.89,736.5H937.5v-1l53.68-38.77C1004.09,719.45,1022.84,735.07,1049.89,736.5Z" transform="translate(-755.98 -171)"/><path class="cls-1" d="M1171.06,735.41v1.09H1058.14c27.2-1.45,46.1-17.24,59.16-40.16Z" transform="translate(-755.98 -171)"/><path class="cls-1" d="M1144.17,582.4c-.81,13.81-2.2,28.2-4.44,42.39-4.1,26.1-11,51.55-22.43,71.55-13.06,22.92-32,38.71-59.16,40.16h-8.25c-27.05-1.43-45.8-17-58.71-39.77-11.39-20-18.22-45.62-22.17-71.86-2.15-14.23-3.45-28.66-4.18-42.5a622.12,622.12,0,0,1,2.11-90.87H1142.7A624,624,0,0,1,1144.17,582.4Z" transform="translate(-755.98 -171)"/><circle class="cls-2" cx="363.02" cy="185" r="29.5"/><circle class="cls-2" cx="235.02" cy="185" r="29.5"/><path class="cls-3" d="M966.94,491.5a622.12,622.12,0,0,0-2.11,90.87c.73,13.84,2,28.27,4.18,42.5,4,26.24,10.78,51.82,22.17,71.86,12.91,22.72,31.66,38.34,58.71,39.77,1.35.07,2.72.11,4.11.11s2.78,0,4.14-.11c27.2-1.45,46.1-17.24,59.16-40.16,11.39-20,18.33-45.45,22.43-71.55,2.24-14.19,3.63-28.58,4.44-42.39a624,624,0,0,0-1.47-90.9.56.56,0,0,1,0-.12h-19.52l-33.66,0-35,0-34,0-32.34,0Z" transform="translate(-755.98 -171)"/><line class="cls-3" x1="302.52" y1="96.5" x2="272.52" y2="8.5"/><line class="cls-3" x1="195.52" y1="23.5" x2="272.52" y2="8.5"/><circle class="cls-3" cx="171.52" cy="28.5" r="24"/><polyline class="cls-3" points="418.52 565.5 415.08 565.5 302.16 565.5 293.91 565.5 181.52 565.5 178.52 565.5"/><polyline class="cls-3" points="361.08 525.16 361.32 525.34 415.08 564.41"/><polyline class="cls-3" points="235.52 525.5 235.2 525.73 181.52 564.5"/><path class="cls-3" d="M1229,385.5a29.5,29.5,0,0,0,0-59" transform="translate(-755.98 -171)"/><path class="cls-3" d="M880,326.5h-.5a29.49,29.49,0,0,0,0,59h.5" transform="translate(-755.98 -171)"/><polygon class="cls-3" points="472.52 214.5 472.52 320.5 400.18 320.5 386.72 320.5 333.52 320.5 298.52 320.5 264.52 320.5 210.96 320.5 198.18 320.5 123.52 320.5 123.52 214.5 123.52 214.49 123.52 155.51 123.52 155.5 123.52 97.5 472.52 97.5 472.52 155.5 472.52 214.5"/><circle class="cls-3" cx="363.02" cy="185" r="29.5"/><circle class="cls-3" cx="235.02" cy="185" r="29.5"/><polyline class="cls-3" points="472.52 155.5 363.02 155.5 235.02 155.5 124.02 155.5 123.52 155.5"/><polyline class="cls-3" points="472.52 214.5 363.02 214.5 333.52 214.5 264.52 214.5 235.02 214.5 124.02 214.5 123.52 214.5"/><polyline class="cls-3" points="264.52 214.5 264.52 267.5 264.52 320.46 264.52 320.5"/><polyline class="cls-3" points="333.52 214.5 333.52 267.5 333.52 320.42 333.52 320.5"/><polyline class="cls-3" points="198.52 267.5 232.18 267.5 264.52 267.5 298.52 267.5 333.52 267.5 367.18 267.5 400.18 267.5 400.52 267.5"/><polyline class="cls-3" points="298.52 268 298.52 320.44 298.52 320.5"/><line class="cls-3" x1="367.18" y1="267.88" x2="367.18" y2="320.38"/><line class="cls-3" x1="400.18" y1="267.88" x2="400.18" y2="320.38"/><line class="cls-3" x1="232.18" y1="267.88" x2="232.18" y2="320.38"/><line class="cls-3" x1="198.18" y1="267.88" x2="198.18" y2="320.38"/><path class="cls-3" d="M965.9,582.55l-1.07-.18a213.4,213.4,0,0,1-25.94-6.54,233.09,233.09,0,0,1-42.83-18.19,174,174,0,0,1-34.22-24.48,132.89,132.89,0,0,1-25-31.14,121.9,121.9,0,0,1-12.23-29.81l-.21-.79" transform="translate(-755.98 -171)"/><path class="cls-3" d="M968.15,625s-20.43-3.14-47.82-13a293,293,0,0,1-42.83-19.38A232,232,0,0,1,842.67,569,181.36,181.36,0,0,1,810,534.23a157.14,157.14,0,0,1-20.37-39.11,161.17,161.17,0,0,1-6.11-22.18l-.3-1.53c-.06-.27-.11-.55-.16-.83" transform="translate(-755.98 -171)"/><polyline class="cls-3" points="0 252.15 4.54 252.15 24.58 252.15 24.65 252.15 28.6 252.15"/><path class="cls-3" d="M828.41,422.58c0,.22,0,.43,0,.65-1.24,19-11.45,33.77-23.86,33.77s-22.65-14.83-23.87-33.85c0-.19,0-.38,0-.57" transform="translate(-755.98 -171)"/><path class="cls-3" d="M828.45,422.66v0" transform="translate(-755.98 -171)"/><path class="cls-3" d="M828.45,422.63v0" transform="translate(-755.98 -171)"/><path class="cls-3" d="M780.56,423.15c0-.18,0-.36,0-.54" transform="translate(-755.98 -171)"/><path class="cls-3" d="M760.52,423.23v-.08c0-.17,0-.34,0-.51" transform="translate(-755.98 -171)"/><path class="cls-3" d="M784.33,472.17l-1.09-.76C770,462,761,444,760.52,423.23" transform="translate(-755.98 -171)"/><path class="cls-3" d="M848.49,422.7c0,.18,0,.35,0,.53-.48,21.36-10.05,39.78-23.87,49a3.75,3.75,0,0,1-.36.24c-.12.09-.24.16-.36.24" transform="translate(-755.98 -171)"/><polyline class="cls-3" points="68.4 252.23 72.38 252.23 92.49 252.23 97 252.23"/><path class="cls-3" d="M861.5,533.52S831.23,541,842.67,569c.08.22.18.44.27.66" transform="translate(-755.98 -171)"/><path class="cls-3" d="M810.34,534c-3.7-26.92,24-31.61,26.49-32l.17,0" transform="translate(-755.98 -171)"/><path class="cls-3" d="M824,472.46h0c-.85-.18-24.63-5.13-34,22.55" transform="translate(-755.98 -171)"/><path class="cls-3" d="M824.45,472.5l-.21-.05-.25-.06c-2.78-.64-18.1-3.7-40.1.48" transform="translate(-755.98 -171)"/><path class="cls-3" d="M938.89,575.83s-30.74,7.56-18.56,36.12" transform="translate(-755.98 -171)"/><path class="cls-3" d="M896.5,557.52l-.44.12c-3.65,1-28.74,9.24-18.56,34.93l.44,1.07" transform="translate(-755.98 -171)"/><path class="cls-3" d="M1143.31,582.55l.86-.15a210.7,210.7,0,0,0,26.15-6.57,233.09,233.09,0,0,0,42.83-18.19,174,174,0,0,0,34.22-24.48,132.6,132.6,0,0,0,25-31.14,121.9,121.9,0,0,0,12.23-29.81l.21-.79" transform="translate(-755.98 -171)"/><path class="cls-3" d="M1141.05,625s20.43-3.14,47.83-13.06a291.51,291.51,0,0,0,42.83-19.38A232.42,232.42,0,0,0,1266.54,569a182.28,182.28,0,0,0,32.66-34.74,157.78,157.78,0,0,0,20.36-39.11,160.93,160.93,0,0,0,6.11-22.19l.3-1.53c.06-.27.11-.55.16-.83" transform="translate(-755.98 -171)"/><path class="cls-3" d="M1170.31,575.83h0c.7.18,30.58,7.89,18.56,36.11h0" transform="translate(-755.98 -171)"/><path class="cls-3" d="M1212.7,557.52l.45.12c3.69,1.06,28.72,9.26,18.56,34.92-.14.36-.29.72-.44,1.08" transform="translate(-755.98 -171)"/><path class="cls-3" d="M1247.7,533.52S1278,541,1266.54,569c-.08.22-.18.44-.27.66" transform="translate(-755.98 -171)"/><path class="cls-3" d="M1298.86,534c3.71-26.92-24-31.61-26.49-32l-.17,0" transform="translate(-755.98 -171)"/><path class="cls-3" d="M1284.75,472.5l.22-.05.24-.06c2.79-.64,18.11-3.7,40.11.48" transform="translate(-755.98 -171)"/><path class="cls-3" d="M1285.2,472.46h0c.85-.18,24.63-5.13,34,22.55" transform="translate(-755.98 -171)"/><polyline class="cls-3" points="528.85 252.23 524.86 252.23 504.75 252.23 500.25 252.23"/><path class="cls-3" d="M1260.71,422.7c0,.18,0,.35,0,.53.48,21.36,10,39.77,23.87,49,.12.08.24.17.37.24s.24.16.36.24" transform="translate(-755.98 -171)"/><path class="cls-3" d="M1324.88,472.17l1.09-.76c13.19-9.45,22.23-27.42,22.71-48.18" transform="translate(-755.98 -171)"/><polyline class="cls-3" points="597.25 252.15 592.7 252.15 572.59 252.15 568.65 252.15"/><path class="cls-3" d="M1280.79,422.58c0,.22,0,.43,0,.65,1.24,19,11.45,33.77,23.86,33.77s22.66-14.83,23.87-33.85c0-.19,0-.38,0-.57" transform="translate(-755.98 -171)"/></g></svg>